<svg id="Capa_1" enable-background="new 0 0 512 512" height="512" viewBox="0 0 512 512" width="512" xmlns="http://www.w3.org/2000/svg"><g><path d="m23.694 448.644 103.018 30.905-10.302-258.575-92.716-10.302z" fill="#cdf2f9"/><path d="m28.845 479.549h97.867l-10.302-30.905h-92.716v25.755c0 2.844 2.306 5.15 5.151 5.15z" fill="#a4e8f9"/><path d="m59.751 282.785h20.604c2.845 0 5.151 2.306 5.151 5.151v93.746c0 2.845-2.306 5.151-5.151 5.151h-20.604c-2.845 0-5.151-2.306-5.151-5.151v-93.746c0-2.845 2.306-5.151 5.151-5.151z" fill="#fff"/><path d="m256.515 138.044c-4.267 0-7.726-3.459-7.726-7.726v-51.509l15.453-28.041v79.55c-.001 4.268-3.46 7.726-7.727 7.726z" fill="#f4e5e0"/><path d="m116.41 479.549h60.31l72.764-10.842 84.295 10.842h30.905l10.302-258.575h-258.576z" fill="#71ddf9"/><path d="m364.684 220.974h30.905v258.575h-30.905z" fill="#23c7f7"/><path d="m47.674 156.072h131.578l-62.841 64.901h-111.26c-2.845 0-5.151-2.306-5.151-5.151v-5.705c0-9.571 3.805-18.749 10.577-25.512l22.537-22.509c3.863-3.856 9.1-6.024 14.56-6.024z" fill="#6f6571"/><path d="m256 360.048h-37.602c-5.69 0-10.302 4.612-10.302 10.302v78.294l95.807 10.302z" fill="#6f6571"/><path d="m256 360.048v98.897l47.903-10.302v-78.293c0-5.687-4.615-10.302-10.302-10.302z" fill="#5d5360"/><path d="m299.783 448.644h-116.41c-2.845 0-5.151 2.306-5.151 5.151v25.755h126.712v-25.755c0-2.845-2.307-5.151-5.151-5.151z" fill="#f4e5e0"/><path d="m333.779 453.795v25.755h-30.905v-25.755c0-2.843-2.308-5.151-5.151-5.151h30.905c2.843 0 5.151 2.307 5.151 5.151z" fill="#e6d6d1"/><path d="m359.533 313.69h-207.066c-2.845 0-5.151-2.306-5.151-5.151v-36.056c0-2.845 2.306-5.151 5.151-5.151h207.066c2.845 0 5.151 2.306 5.151 5.151v36.056c0 2.845-2.306 5.151-5.151 5.151z" fill="#fff"/><path d="m217.86 125.167h49.496c5.582 0 10.924 2.265 14.806 6.275l86.643 89.531h-252.395l86.643-89.531c3.882-4.01 9.225-6.275 14.807-6.275z" fill="#fcf1f2"/><path d="m395.59 220.974h-30.905l-86.638-89.533c-3.884-4.007-9.23-6.274-14.814-6.274h30.905c5.584 0 10.93 2.266 14.814 6.274z" fill="#f4e5e0"/><path d="m295.662 78.809h-46.873v-36.056c0-5.69 4.612-10.302 10.302-10.302h36.571c5.69 0 10.302 4.612 10.302 10.302v25.755c0 5.689-4.612 10.301-10.302 10.301z" fill="#fc8d94"/><path d="m333.779 42.753v25.755c0 5.687-4.615 10.302-10.302 10.302h-30.905c5.687 0 10.302-4.615 10.302-10.302v-25.755c0-5.687-4.615-10.302-10.302-10.302h30.905c5.686 0 10.302 4.615 10.302 10.302z" fill="#fa6f7c"/><path d="m254.97 190.068c-9.388 0-16.998-7.61-16.998-16.998 0-9.388 7.61-16.998 16.998-16.998 9.388 0 16.998 7.61 16.998 16.998 0 9.388-7.61 16.998-16.998 16.998z" fill="#e6d6d1"/><path d="m456.37 479.549h-60.78v-258.575h65.932v253.425c-.001 2.844-2.307 5.15-5.152 5.15z" fill="#cdf2f9"/><path d="m488.306 220.974v227.67l-9.965 8.541-20.941-8.541v-66.962l-18.822-39.678 18.822-54.068v-66.962z" fill="#a4e8f9"/><path d="m455.34 479.549h-59.75v-30.905h64.901v25.755c0 2.844-2.306 5.15-5.151 5.15z" fill="#a4e8f9"/><path d="m488.306 448.644v25.755c0 2.843-2.308 5.151-5.151 5.151h-30.905c2.843 0 5.151-2.308 5.151-5.151v-25.755z" fill="#71ddf9"/><path d="m436.512 156.072h-103.763l62.841 64.901h83.445c2.845 0 5.151-2.306 5.151-5.151v-5.705c0-9.571-3.805-18.749-10.577-25.512l-22.537-22.509c-3.864-3.856-9.101-6.024-14.56-6.024z" fill="#6f6571"/><path d="m512 210.116v5.707c0 2.843-2.308 5.151-5.151 5.151h-30.905c2.843 0 5.151-2.308 5.151-5.151v-5.707c0-9.57-3.801-18.749-10.58-25.507l-22.53-22.509c-3.863-3.863-9.107-6.027-14.567-6.027h30.905c5.46 0 10.704 2.163 14.567 6.027l22.53 22.509c6.779 6.757 10.58 15.936 10.58 25.507z" fill="#5d5360"/><path d="m431.646 282.785h20.604c2.845 0 5.151 2.306 5.151 5.151v93.746c0 2.845-2.306 5.151-5.151 5.151h-20.604c-2.845 0-5.151-2.306-5.151-5.151v-93.746c0-2.845 2.306-5.151 5.151-5.151z" fill="#fff"/><g fill="#71ddf9"><path d="m296.177 267.332h15.453v46.358h-15.453z"/><path d="m200.37 267.332h15.453v46.358h-15.453z"/></g></g></svg>